# 3ds Max Wavefront OBJ Exporter v0.99 - (c)2007 guruware
# File Created: 12.03.2024 19:38:32

mtllib GoddarCuerpo.mtl

#
# object Cuerpo
#

v  -1.5760 0.2403 -1.4847
v  -1.5760 0.1887 0.9856
v  1.2922 1.4070 1.0110
v  1.2922 1.4586 -1.4592
v  -0.9830 -1.2263 0.9560
v  1.8852 -0.0079 0.9814
v  -0.9830 -1.1747 -1.5143
v  1.8852 0.0438 -1.4888
# 8 vertices

vn -0.3910 0.9202 0.0192
vn 0.0000 -0.0209 0.9998
vn -0.9223 -0.3863 -0.0081
vn 0.3911 -0.9202 -0.0192
vn 0.9223 0.3864 0.0081
vn 0.0000 0.0209 -0.9998
# 6 vertex normals

vt 0.8750 0.5000 0.0000
vt 0.8750 0.7500 0.0000
vt 0.6250 0.7500 0.0000
vt 0.6250 0.5000 0.0000
vt 0.6250 1.0000 0.0000
vt 0.3750 1.0000 0.0000
vt 0.3750 0.7500 0.0000
vt 0.6250 0.0000 0.0000
vt 0.6250 0.2500 0.0000
vt 0.3750 0.2500 0.0000
vt 0.3750 0.0000 0.0000
vt 0.3750 0.5000 0.0000
vt 0.1250 0.7500 0.0000
vt 0.1250 0.5000 0.0000
# 14 texture coords

o Cuerpo
g Cuerpo
usemtl goddard_base_Goddard_Material
s off
f 1/1/1 2/2/1 3/3/1 
f 3/3/1 4/4/1 1/1/1 
f 3/3/2 2/5/2 5/6/2 
f 5/6/2 6/7/2 3/3/2 
f 2/8/3 1/9/3 7/10/3 
f 7/10/3 5/11/3 2/8/3 
f 8/12/4 6/7/4 5/13/4 
f 5/13/4 7/14/4 8/12/4 
f 4/4/5 3/3/5 6/7/5 
f 6/7/5 8/12/5 4/4/5 
f 1/9/6 4/4/6 8/12/6 
f 8/12/6 7/10/6 1/9/6 
# 12 faces

#
# object Cuerpo001
#

v  -1.4712 -0.0141 -0.3982
v  -1.4878 0.0000 -0.1842
v  -1.5721 0.1996 -0.1658
v  -1.5557 0.1855 -0.3799
v  -2.1736 0.1220 -0.2455
v  -2.1800 0.1274 -0.1617
v  -1.8641 -0.0155 -0.1406
v  -1.8474 -0.0296 -0.3547
v  -1.8590 0.1739 -0.1332
v  -1.8426 0.1598 -0.3472
v  -2.3487 0.2897 -0.1697
v  -2.1781 0.2017 -0.1587
v  -2.3538 0.2796 -0.1696
v  -2.1716 0.1962 -0.2426
v  -2.3528 0.2787 -0.1832
v  -2.3476 0.2888 -0.1832
# 16 vertices

vn -0.9217 -0.3851 -0.0459
vn -0.9217 -0.3851 -0.0458
vn 0.4138 0.9099 -0.0279
vn 0.4137 0.9100 -0.0279
vn -0.0492 0.9964 -0.0696
vn 0.0973 -0.9926 0.0727
vn 0.0971 -0.9926 0.0725
vn -0.1168 0.0420 -0.9923
vn -0.1166 0.0421 -0.9923
vn 0.1166 -0.0421 0.9923
vn 0.1168 -0.0417 0.9923
vn 0.0726 0.0264 -0.9970
vn 0.0725 0.0264 -0.9970
vn -0.0914 -0.9941 0.0581
vn -0.0913 -0.9941 0.0582
vn 0.0832 0.0366 -0.9959
vn 0.0833 0.0369 -0.9958
vn 0.2981 -0.0452 0.9535
vn 0.2981 -0.0454 0.9535
vn 0.8895 -0.4463 0.0980
vn 0.2888 -0.0550 0.9558
vn 0.6586 0.7525 0.0012
vn 0.6585 0.7526 0.0013
vn -0.4594 -0.8879 0.0227
vn -0.4592 -0.8880 0.0230
# 25 vertex normals

vt 1.0000 0.0000 0.0000
vt 1.0000 1.0000 0.0000
vt 0.0000 1.0000 0.0000
vt 0.0000 0.0000 0.0000
# 4 texture coords

o Cuerpo001
g Cuerpo001
usemtl goddard_base_Goddard_None
s off
f 9/15/7 10/16/7 11/17/7 
f 11/17/8 12/18/8 9/15/8 
f 13/15/9 14/16/9 15/16/9 
f 15/16/10 16/15/10 13/15/10 
f 16/15/11 15/16/11 10/16/11 
f 10/16/11 9/15/11 16/15/11 
f 17/17/12 18/18/12 12/18/12 
f 12/18/13 11/17/13 17/17/13 
f 15/16/14 17/17/14 11/17/14 
f 11/17/15 10/16/15 15/16/15 
f 18/18/16 16/15/16 9/15/16 
f 9/15/17 12/18/17 18/18/17 
f 19/17/18 20/17/19 14/16/19 
f 14/16/19 21/16/19 19/17/19 
f 20/17/20 22/18/20 18/18/20 
f 18/18/21 17/17/21 20/17/21 
f 17/17/22 15/16/22 14/16/22 
f 14/16/23 20/17/23 17/17/23 
f 13/15/24 16/15/24 18/18/24 
f 18/18/25 22/18/25 13/15/25 
f 19/17/26 21/16/26 23/15/26 
f 23/15/26 24/18/26 19/17/26 
f 22/18/27 24/18/27 23/15/27 
f 23/15/27 13/15/27 22/18/27 
f 21/16/28 14/16/28 13/15/28 
f 13/15/29 23/15/29 21/16/29 
f 24/18/30 22/18/30 20/17/30 
f 20/17/31 19/17/31 24/18/31 
# 28 faces

