# Blender 3.6.2
# www.blender.org
mtllib llantas_delanteras_origen.mtl
o WheelsBack
v -1.580299 0.069463 0.693749
v -1.580299 0.312749 0.650852
v -1.580299 0.526691 0.527331
v -1.580299 0.685484 0.338089
v -1.580299 0.769977 0.105947
v -1.580299 0.769977 -0.141091
v -1.580299 0.685484 -0.373232
v -1.580299 0.526691 -0.562476
v -1.580299 0.312749 -0.685995
v -1.580299 0.069463 -0.728893
v -1.580299 -0.173823 -0.685995
v -1.580299 -0.387766 -0.562476
v -1.580299 -0.546559 -0.373231
v -1.580299 -0.631052 -0.141091
v -1.580299 -0.631052 0.105948
v -1.580299 -0.546559 0.338089
v -1.580299 -0.387766 0.527331
v -1.580299 -0.173823 0.650852
v -2.029828 0.312749 0.650852
v -2.029828 0.069463 0.693749
v -2.029828 0.526691 0.527331
v -2.029828 0.685484 0.338089
v -2.029828 0.769977 0.105947
v -2.029828 0.769977 -0.141091
v -2.029828 0.685484 -0.373232
v -2.029828 0.526691 -0.562476
v -2.029828 0.312749 -0.685995
v -2.029828 0.069463 -0.728893
v -2.029828 -0.173823 -0.685995
v -2.029828 -0.387766 -0.562476
v -2.029828 -0.546559 -0.373231
v -2.029828 -0.631052 -0.141091
v -2.029828 -0.631052 0.105948
v -2.029828 -0.546559 0.338089
v -2.029828 -0.387766 0.527331
v -2.029828 -0.173823 0.650852
v -2.095268 0.282078 0.566585
v -2.095268 0.069463 0.604075
v -2.095268 0.469050 0.458638
v -2.095268 0.607825 0.293252
v -2.095268 0.681666 0.090376
v -2.095268 0.681666 -0.125520
v -2.095268 0.607825 -0.328396
v -2.095268 0.469050 -0.493782
v -2.095268 0.282078 -0.601730
v -2.095268 0.069463 -0.639219
v -2.095268 -0.143153 -0.601730
v -2.095268 -0.330125 -0.493781
v -2.095268 -0.468900 -0.328396
v -2.095268 -0.542741 -0.125520
v -2.095268 -0.542741 0.090376
v -2.095268 -0.468900 0.293252
v -2.095268 -0.330125 0.458638
v -2.095268 -0.143153 0.566585
v -2.095268 0.221128 0.399127
v -2.095268 0.354501 0.322124
v -2.095268 0.453494 0.204149
v -2.095268 0.506167 0.059431
v -2.095268 0.506167 -0.094575
v -2.095268 0.453494 -0.239293
v -2.095268 0.354501 -0.357268
v -2.095268 0.221128 -0.434270
v -2.095268 0.069463 -0.461013
v -2.095268 -0.082203 -0.434269
v -2.095268 -0.215576 -0.357268
v -2.095268 -0.314569 -0.239293
v -2.095268 -0.367241 -0.094574
v -2.095268 -0.367241 0.059431
v -2.095268 -0.314569 0.204149
v -2.095268 -0.215576 0.322124
v -2.095268 -0.082203 0.399127
v -2.095268 0.069463 0.425869
v -2.035179 0.354501 0.322124
v -2.035179 0.221128 0.399127
v -2.035179 0.069463 0.425869
v -2.035179 0.453494 0.204149
v -2.035179 0.506167 0.059431
v -2.035179 0.506167 -0.094575
v -2.035179 0.453494 -0.239293
v -2.035179 0.354501 -0.357268
v -2.035179 0.221128 -0.434270
v -2.035179 0.069463 -0.461013
v -2.035179 -0.082203 -0.434269
v -2.035179 -0.215576 -0.357268
v -2.035179 -0.314569 -0.239293
v -2.035179 -0.367241 -0.094574
v -2.035179 -0.367241 0.059431
v -2.035179 -0.314569 0.204149
v -2.035179 -0.215576 0.322124
v -2.035179 -0.082203 0.399127
v -2.035179 0.157678 0.224799
v -2.035179 0.235254 0.180012
v -2.035179 0.292833 0.111391
v -2.035179 0.323470 0.027216
v -2.035179 0.323470 -0.062360
v -2.035179 0.292833 -0.146535
v -2.035179 0.235254 -0.215154
v -2.035179 0.157678 -0.259942
v -2.035179 0.069463 -0.275497
v -2.035179 -0.018753 -0.259942
v -2.035179 -0.096329 -0.215154
v -2.035179 -0.153908 -0.146534
v -2.035179 -0.184545 -0.062360
v -2.035179 -0.184545 0.027217
v -2.035179 -0.153908 0.111391
v -2.035179 -0.096329 0.180012
v -2.035179 -0.018753 0.224799
v -2.035179 0.069463 0.240354
v -2.068043 0.235254 0.180012
v -2.068043 0.157678 0.224799
v -2.068043 0.069463 0.240354
v -2.068043 0.292833 0.111391
v -2.068043 0.323470 0.027216
v -2.068043 0.323470 -0.062360
v -2.068043 0.292833 -0.146535
v -2.068043 0.235254 -0.215154
v -2.068043 0.157678 -0.259942
v -2.068043 0.069463 -0.275497
v -2.068043 -0.018753 -0.259942
v -2.068043 -0.096329 -0.215154
v -2.068043 -0.153908 -0.146534
v -2.068043 -0.184545 -0.062360
v -2.068043 -0.184545 0.027217
v -2.068043 -0.153908 0.111391
v -2.068043 -0.096329 0.180012
v -2.068043 -0.018753 0.224799
v 1.580299 0.069463 0.693749
v 1.580299 0.312749 0.650852
v 1.580299 0.526691 0.527331
v 1.580299 0.685485 0.338089
v 1.580300 0.769977 0.105947
v 1.580300 0.769977 -0.141092
v 1.580299 0.685485 -0.373232
v 1.580299 0.526691 -0.562476
v 1.580299 0.312749 -0.685995
v 1.580299 0.069463 -0.728893
v 1.580299 -0.173823 -0.685995
v 1.580299 -0.387766 -0.562476
v 1.580299 -0.546559 -0.373231
v 1.580299 -0.631052 -0.141091
v 1.580299 -0.631052 0.105948
v 1.580299 -0.546559 0.338089
v 1.580299 -0.387766 0.527331
v 1.580299 -0.173823 0.650852
v 2.029828 0.312749 0.650852
v 2.029828 0.069463 0.693749
v 2.029828 0.526691 0.527331
v 2.029829 0.685484 0.338089
v 2.029829 0.769977 0.105947
v 2.029829 0.769977 -0.141092
v 2.029829 0.685484 -0.373232
v 2.029828 0.526691 -0.562476
v 2.029828 0.312749 -0.685995
v 2.029828 0.069463 -0.728893
v 2.029828 -0.173823 -0.685995
v 2.029828 -0.387766 -0.562476
v 2.029828 -0.546559 -0.373231
v 2.029828 -0.631052 -0.141091
v 2.029828 -0.631052 0.105948
v 2.029828 -0.546559 0.338089
v 2.029828 -0.387766 0.527331
v 2.029828 -0.173823 0.650852
v 2.095268 0.282079 0.566585
v 2.095268 0.069463 0.604075
v 2.095268 0.469050 0.458638
v 2.095268 0.607825 0.293252
v 2.095268 0.681666 0.090376
v 2.095268 0.681666 -0.125520
v 2.095268 0.607825 -0.328396
v 2.095268 0.469050 -0.493782
v 2.095268 0.282079 -0.601730
v 2.095268 0.069463 -0.639219
v 2.095268 -0.143153 -0.601730
v 2.095268 -0.330125 -0.493781
v 2.095268 -0.468900 -0.328396
v 2.095268 -0.542740 -0.125520
v 2.095268 -0.542740 0.090376
v 2.095268 -0.468900 0.293252
v 2.095268 -0.330125 0.458638
v 2.095268 -0.143153 0.566585
v 2.095268 0.221128 0.399127
v 2.095268 0.354501 0.322124
v 2.095268 0.453494 0.204149
v 2.095268 0.506167 0.059431
v 2.095268 0.506167 -0.094575
v 2.095268 0.453494 -0.239293
v 2.095268 0.354501 -0.357268
v 2.095268 0.221128 -0.434270
v 2.095268 0.069463 -0.461013
v 2.095268 -0.082203 -0.434269
v 2.095268 -0.215576 -0.357268
v 2.095268 -0.314568 -0.239293
v 2.095268 -0.367241 -0.094574
v 2.095268 -0.367241 0.059431
v 2.095268 -0.314569 0.204149
v 2.095268 -0.215576 0.322124
v 2.095268 -0.082203 0.399127
v 2.095268 0.069463 0.425869
v 2.035180 0.354501 0.322124
v 2.035180 0.221128 0.399127
v 2.035180 0.069463 0.425869
v 2.035180 0.453494 0.204149
v 2.035180 0.506167 0.059431
v 2.035180 0.506167 -0.094575
v 2.035180 0.453494 -0.239293
v 2.035180 0.354501 -0.357268
v 2.035180 0.221128 -0.434270
v 2.035180 0.069463 -0.461013
v 2.035180 -0.082203 -0.434269
v 2.035180 -0.215576 -0.357268
v 2.035180 -0.314568 -0.239293
v 2.035180 -0.367241 -0.094574
v 2.035180 -0.367241 0.059431
v 2.035180 -0.314569 0.204149
v 2.035180 -0.215576 0.322124
v 2.035180 -0.082203 0.399127
v 2.035180 0.157679 0.224799
v 2.035180 0.235254 0.180012
v 2.035180 0.292833 0.111391
v 2.035180 0.323470 0.027216
v 2.035180 0.323470 -0.062360
v 2.035180 0.292833 -0.146535
v 2.035180 0.235254 -0.215154
v 2.035180 0.157679 -0.259942
v 2.035180 0.069463 -0.275497
v 2.035180 -0.018753 -0.259944
v 2.035180 -0.096329 -0.215154
v 2.035180 -0.153908 -0.146534
v 2.035180 -0.184545 -0.062360
v 2.035180 -0.184545 0.027217
v 2.035180 -0.153908 0.111391
v 2.035180 -0.096329 0.180012
v 2.035180 -0.018753 0.224799
v 2.035180 0.069463 0.240354
v 2.068044 0.235254 0.180012
v 2.068044 0.157679 0.224799
v 2.068044 0.069463 0.240354
v 2.068044 0.292833 0.111391
v 2.068044 0.323470 0.027216
v 2.068044 0.323470 -0.062360
v 2.068044 0.292833 -0.146535
v 2.068044 0.235254 -0.215154
v 2.068044 0.157679 -0.259942
v 2.068044 0.069463 -0.275497
v 2.068044 -0.018753 -0.259944
v 2.068044 -0.096329 -0.215154
v 2.068044 -0.153908 -0.146534
v 2.068044 -0.184545 -0.062360
v 2.068044 -0.184545 0.027217
v 2.068044 -0.153908 0.111391
v 2.068044 -0.096329 0.180012
v 2.068044 -0.018753 0.224799
vn 1.0000 -0.0000 -0.0000
vn -0.4992 0.5570 0.6638
vn -0.9542 0.2591 0.1496
vn -0.9542 0.1923 0.2292
vn -0.0000 -0.9848 -0.1736
vn -0.4992 -0.8533 0.1505
vn -0.4992 -0.8533 -0.1505
vn -0.0000 0.8660 -0.5000
vn -0.4992 0.5570 -0.6638
vn -0.4992 0.7504 -0.4332
vn -0.0000 -0.9848 0.1736
vn -0.4992 -0.7504 0.4332
vn -0.0000 0.6428 -0.7660
vn -0.4992 0.2964 -0.8142
vn -0.0000 -0.0000 1.0000
vn -0.4992 0.2964 0.8142
vn -0.4992 -0.0000 0.8665
vn -0.0000 -0.8660 0.5000
vn -0.4992 -0.5570 0.6638
vn -0.0000 0.3420 -0.9397
vn -0.4992 -0.0000 -0.8665
vn -0.0000 0.3420 0.9397
vn -0.0000 -0.6428 0.7660
vn -0.4992 -0.2964 0.8142
vn -0.0000 -0.0000 -1.0000
vn -0.4992 -0.2964 -0.8142
vn -0.0000 0.6428 0.7660
vn -0.4992 0.7504 0.4333
vn -0.0000 -0.3420 0.9397
vn -0.0000 -0.3420 -0.9397
vn -0.4992 -0.5570 -0.6638
vn -0.0000 0.8660 0.5000
vn -0.4992 0.8533 0.1505
vn -0.0000 -0.6428 -0.7660
vn -0.4992 -0.7504 -0.4332
vn -0.0000 0.9848 0.1736
vn -0.4992 0.8533 -0.1505
vn -0.0000 -0.8660 -0.5000
vn -0.0000 0.9848 -0.1736
vn -0.9542 -0.0000 0.2992
vn -0.9542 -0.1023 0.2811
vn -0.9542 -0.1923 -0.2292
vn -0.9542 -0.1023 -0.2811
vn -0.9542 0.2946 0.0519
vn -0.9542 -0.2591 -0.1496
vn -0.9542 0.2946 -0.0519
vn -0.9542 -0.2946 -0.0519
vn -0.9542 0.2591 -0.1496
vn -0.9542 -0.2946 0.0519
vn -0.9542 0.1923 -0.2292
vn -0.9542 -0.2591 0.1496
vn -0.9542 0.1023 -0.2811
vn -0.9542 0.1023 0.2811
vn -0.9542 -0.1923 0.2292
vn -0.9542 -0.0000 -0.2992
vn -1.0000 -0.0000 -0.0000
vn 0.4992 0.5570 0.6638
vn 0.9542 0.2591 0.1496
vn 0.4992 0.7504 0.4332
vn 0.4992 -0.8533 0.1505
vn 0.4992 0.5570 -0.6638
vn 0.4992 -0.7504 0.4332
vn 0.4992 0.2964 -0.8142
vn 0.4992 0.2964 0.8142
vn 0.4992 -0.5570 0.6638
vn 0.4992 -0.0000 -0.8665
vn 0.4992 -0.2964 0.8142
vn 0.4992 -0.2964 -0.8142
vn 0.4992 -0.0000 0.8665
vn 0.4992 -0.5570 -0.6638
vn 0.4992 0.8533 0.1505
vn 0.4992 -0.7504 -0.4332
vn 0.4992 0.8533 -0.1505
vn 0.4992 -0.8533 -0.1505
vn 0.4992 0.7504 -0.4332
vn 0.9542 -0.0000 0.2992
vn 0.9542 -0.1923 -0.2292
vn 0.9542 0.2946 0.0519
vn 0.9542 -0.2591 -0.1496
vn 0.9542 0.2946 -0.0519
vn 0.9542 -0.2946 -0.0519
vn 0.9542 0.2591 -0.1496
vn 0.9542 -0.2946 0.0519
vn 0.9542 0.1923 -0.2292
vn 0.9542 -0.2591 0.1496
vn 0.9542 0.1023 -0.2811
vn 0.9542 0.1023 0.2811
vn 0.9542 -0.1923 0.2292
vn 0.9542 -0.0000 -0.2992
vn 0.9542 0.1923 0.2292
vn 0.9542 -0.1023 0.2811
vn 0.9542 -0.1023 -0.2811
vt 0.923917 0.911515
vt 0.440256 0.595275
s 1
usemtl mix
f 17/1/1 13/1/1 9/1/1
f 21/1/2 40/1/3 39/1/4
f 14/1/5 33/1/6 32/1/7
f 7/1/8 26/1/9 25/1/10
f 15/1/11 34/1/12 33/1/6
f 8/1/13 27/1/14 26/1/9
f 1/1/15 19/1/16 20/1/17
f 16/1/18 35/1/19 34/1/12
f 9/1/20 28/1/21 27/1/14
f 2/1/22 21/1/2 19/1/16
f 17/1/23 36/1/24 35/1/19
f 10/1/25 29/1/26 28/1/21
f 3/1/27 22/1/28 21/1/2
f 18/1/29 20/1/17 36/1/24
f 11/1/30 30/1/31 29/1/26
f 4/1/32 23/1/33 22/1/28
f 12/1/34 31/1/35 30/1/31
f 5/1/36 24/1/37 23/1/33
f 13/1/38 32/1/7 31/1/35
f 6/1/39 25/1/10 24/1/37
f 59/1/11 79/1/18 78/1/11
f 36/1/24 38/1/40 54/1/41
f 29/1/26 48/1/42 47/1/43
f 22/1/28 41/1/44 40/1/3
f 30/1/31 49/1/45 48/1/42
f 23/1/33 42/1/46 41/1/44
f 31/1/35 50/1/47 49/1/45
f 24/1/37 43/1/48 42/1/46
f 32/1/7 51/1/49 50/1/47
f 25/1/10 44/1/50 43/1/48
f 33/1/6 52/1/51 51/1/49
f 26/1/9 45/1/52 44/1/50
f 20/1/17 37/1/53 38/1/40
f 34/1/12 53/1/54 52/1/51
f 27/1/14 46/1/55 45/1/52
f 19/1/16 39/1/4 37/1/53
f 35/1/19 54/1/41 53/1/54
f 28/1/21 47/1/43 46/1/55
f 37/1/53 56/1/56 55/1/56
f 39/1/4 57/1/56 56/1/56
f 40/1/3 58/1/56 57/1/56
f 41/1/44 59/1/56 58/1/56
f 42/1/46 60/1/56 59/1/56
f 43/1/48 61/1/56 60/1/56
f 44/1/50 62/1/56 61/1/56
f 45/1/52 63/1/56 62/1/56
f 46/1/55 64/1/56 63/1/56
f 47/1/43 65/1/56 64/1/56
f 48/1/42 66/1/56 65/1/56
f 49/1/45 67/1/56 66/1/56
f 50/1/47 68/1/56 67/1/56
f 51/1/49 69/1/56 68/1/56
f 52/1/51 70/1/56 69/1/56
f 53/1/54 71/1/56 70/1/56
f 54/1/41 72/1/56 71/1/56
f 38/1/40 55/1/56 72/1/56
f 100/2/30 120/2/34 119/2/30
f 67/1/36 87/1/39 86/1/36
f 60/1/18 80/1/23 79/1/18
f 68/1/39 88/1/8 87/1/39
f 61/1/23 81/1/29 80/1/23
f 55/1/30 73/1/34 74/1/30
f 69/1/8 89/1/13 88/1/8
f 62/1/29 82/1/15 81/1/29
f 72/1/25 74/1/30 75/1/25
f 70/1/13 90/1/20 89/1/13
f 63/1/15 83/1/22 82/1/15
f 56/1/34 76/1/38 73/1/34
f 71/1/20 75/1/25 90/1/20
f 64/1/22 84/1/27 83/1/22
f 57/1/38 77/1/5 76/1/38
f 65/1/27 85/1/32 84/1/27
f 58/1/5 78/1/11 77/1/5
f 66/1/32 86/1/36 85/1/32
f 74/1/56 92/1/56 91/1/56
f 73/1/56 93/1/56 92/1/56
f 76/1/56 94/1/56 93/1/56
f 77/1/56 95/1/56 94/1/56
f 78/1/56 96/1/56 95/1/56
f 79/1/56 97/1/56 96/1/56
f 80/1/56 98/1/56 97/1/56
f 81/1/56 99/1/56 98/1/56
f 82/1/56 100/1/56 99/1/56
f 83/1/56 101/1/56 100/1/56
f 84/1/56 102/1/56 101/1/56
f 85/1/56 103/1/56 102/1/56
f 86/1/56 104/1/56 103/1/56
f 87/1/56 105/1/56 104/1/56
f 88/1/56 106/1/56 105/1/56
f 89/1/56 107/1/56 106/1/56
f 90/1/56 108/1/56 107/1/56
f 75/1/56 91/1/56 108/1/56
f 123/2/56 125/2/56 113/2/56
f 93/2/32 113/2/36 112/2/32
f 101/2/34 121/2/38 120/2/34
f 94/2/36 114/2/39 113/2/36
f 102/2/38 122/2/5 121/2/38
f 95/2/39 115/2/8 114/2/39
f 103/2/5 123/2/11 122/2/5
f 96/2/8 116/2/13 115/2/8
f 104/2/11 124/2/18 123/2/11
f 97/2/13 117/2/20 116/2/13
f 91/2/22 109/2/27 110/2/22
f 105/2/18 125/2/23 124/2/18
f 98/2/20 118/2/25 117/2/20
f 108/2/15 110/2/22 111/2/15
f 106/2/23 126/2/29 125/2/23
f 99/2/25 119/2/30 118/2/25
f 92/2/27 112/2/32 109/2/27
f 107/2/29 111/2/15 126/2/29
f 131/1/56 139/1/56 143/1/56
f 147/1/57 166/1/58 148/1/59
f 140/1/5 159/1/60 141/1/11
f 133/1/8 152/1/61 134/1/13
f 141/1/11 160/1/62 142/1/18
f 134/1/13 153/1/63 135/1/20
f 127/1/15 145/1/64 128/1/22
f 142/1/18 161/1/65 143/1/23
f 135/1/20 154/1/66 136/1/25
f 128/1/22 147/1/57 129/1/27
f 143/1/23 162/1/67 144/1/29
f 136/1/25 155/1/68 137/1/30
f 129/1/27 148/1/59 130/1/32
f 144/1/29 146/1/69 127/1/15
f 137/1/30 156/1/70 138/1/34
f 130/1/32 149/1/71 131/1/36
f 138/1/34 157/1/72 139/1/38
f 131/1/36 150/1/73 132/1/39
f 139/1/38 158/1/74 140/1/5
f 132/1/39 151/1/75 133/1/8
f 185/1/11 205/1/18 186/1/18
f 162/1/67 164/1/76 146/1/69
f 155/1/68 174/1/77 156/1/70
f 148/1/59 167/1/78 149/1/71
f 156/1/70 175/1/79 157/1/72
f 149/1/71 168/1/80 150/1/73
f 157/1/72 176/1/81 158/1/74
f 150/1/73 169/1/82 151/1/75
f 158/1/74 177/1/83 159/1/60
f 151/1/75 170/1/84 152/1/61
f 159/1/60 178/1/85 160/1/62
f 152/1/61 171/1/86 153/1/63
f 146/1/69 163/1/87 145/1/64
f 160/1/62 179/1/88 161/1/65
f 153/1/63 172/1/89 154/1/66
f 145/1/64 165/1/90 147/1/57
f 161/1/65 180/1/91 162/1/67
f 154/1/66 173/1/92 155/1/68
f 163/1/87 182/1/1 165/1/90
f 165/1/90 183/1/1 166/1/58
f 166/1/58 184/1/1 167/1/78
f 167/1/78 185/1/1 168/1/80
f 168/1/80 186/1/1 169/1/82
f 169/1/82 187/1/1 170/1/84
f 170/1/84 188/1/1 171/1/86
f 171/1/86 189/1/1 172/1/89
f 172/1/89 190/1/1 173/1/92
f 173/1/92 191/1/1 174/1/77
f 174/1/77 192/1/1 175/1/79
f 175/1/79 193/1/1 176/1/81
f 176/1/81 194/1/1 177/1/83
f 177/1/83 195/1/1 178/1/85
f 178/1/85 196/1/1 179/1/88
f 179/1/88 197/1/1 180/1/91
f 180/1/91 198/1/1 164/1/76
f 164/1/76 181/1/1 163/1/87
f 226/2/30 246/2/34 227/2/34
f 193/1/36 213/1/39 194/1/39
f 186/1/18 206/1/23 187/1/23
f 194/1/39 214/1/8 195/1/8
f 187/1/23 207/1/29 188/1/29
f 181/1/30 199/1/34 182/1/34
f 195/1/8 215/1/13 196/1/13
f 188/1/29 208/1/15 189/1/15
f 198/1/25 200/1/30 181/1/30
f 196/1/13 216/1/20 197/1/20
f 189/1/15 209/1/22 190/1/22
f 182/1/34 202/1/38 183/1/38
f 197/1/20 201/1/25 198/1/25
f 190/1/22 210/1/27 191/1/27
f 183/1/38 203/1/5 184/1/5
f 191/1/27 211/1/32 192/1/32
f 184/1/5 204/1/11 185/1/11
f 192/1/32 212/1/36 193/1/36
f 200/1/1 218/1/1 199/1/1
f 199/1/1 219/1/1 202/1/1
f 202/1/1 220/1/1 203/1/1
f 203/1/1 221/1/1 204/1/1
f 204/1/1 222/1/1 205/1/1
f 205/1/1 223/1/1 206/1/1
f 206/1/1 224/1/1 207/1/1
f 207/1/1 225/1/1 208/1/1
f 208/1/1 226/1/1 209/1/1
f 209/1/1 227/1/1 210/1/1
f 210/1/1 228/1/1 211/1/1
f 211/1/1 229/1/1 212/1/1
f 212/1/1 230/1/1 213/1/1
f 213/1/1 231/1/1 214/1/1
f 214/1/1 232/1/1 215/1/1
f 215/1/1 233/1/1 216/1/1
f 216/1/1 234/1/1 201/1/1
f 201/1/1 217/1/1 200/1/1
f 251/2/1 243/2/1 239/2/1
f 219/2/32 239/2/36 220/2/36
f 227/2/34 247/2/38 228/2/38
f 220/2/36 240/2/39 221/2/39
f 228/2/38 248/2/5 229/2/5
f 221/2/39 241/2/8 222/2/8
f 229/2/5 249/2/11 230/2/11
f 222/2/8 242/2/13 223/2/13
f 230/2/11 250/2/18 231/2/18
f 223/2/13 243/2/20 224/2/20
f 217/2/22 235/2/27 218/2/27
f 231/2/18 251/2/23 232/2/23
f 224/2/20 244/2/25 225/2/25
f 234/2/15 236/2/22 217/2/22
f 232/2/23 252/2/29 233/2/29
f 225/2/25 245/2/30 226/2/30
f 218/2/27 238/2/32 219/2/32
f 233/2/29 237/2/15 234/2/15
f 3/1/1 2/1/1 1/1/1
f 1/1/1 18/1/1 3/1/1
f 18/1/1 17/1/1 3/1/1
f 17/1/1 16/1/1 13/1/1
f 16/1/1 15/1/1 13/1/1
f 15/1/1 14/1/1 13/1/1
f 13/1/1 12/1/1 11/1/1
f 11/1/1 10/1/1 9/1/1
f 9/1/1 8/1/1 7/1/1
f 7/1/1 6/1/1 5/1/1
f 5/1/1 4/1/1 17/1/1
f 4/1/1 3/1/1 17/1/1
f 13/1/1 11/1/1 9/1/1
f 9/1/1 7/1/1 17/1/1
f 7/1/1 5/1/1 17/1/1
f 21/1/2 22/1/28 40/1/3
f 14/1/5 15/1/11 33/1/6
f 7/1/8 8/1/13 26/1/9
f 15/1/11 16/1/18 34/1/12
f 8/1/13 9/1/20 27/1/14
f 1/1/15 2/1/22 19/1/16
f 16/1/18 17/1/23 35/1/19
f 9/1/20 10/1/25 28/1/21
f 2/1/22 3/1/27 21/1/2
f 17/1/23 18/1/29 36/1/24
f 10/1/25 11/1/30 29/1/26
f 3/1/27 4/1/32 22/1/28
f 18/1/29 1/1/15 20/1/17
f 11/1/30 12/1/34 30/1/31
f 4/1/32 5/1/36 23/1/33
f 12/1/34 13/1/38 31/1/35
f 5/1/36 6/1/39 24/1/37
f 13/1/38 14/1/5 32/1/7
f 6/1/39 7/1/8 25/1/10
f 59/1/11 60/1/18 79/1/18
f 36/1/24 20/1/17 38/1/40
f 29/1/26 30/1/31 48/1/42
f 22/1/28 23/1/33 41/1/44
f 30/1/31 31/1/35 49/1/45
f 23/1/33 24/1/37 42/1/46
f 31/1/35 32/1/7 50/1/47
f 24/1/37 25/1/10 43/1/48
f 32/1/7 33/1/6 51/1/49
f 25/1/10 26/1/9 44/1/50
f 33/1/6 34/1/12 52/1/51
f 26/1/9 27/1/14 45/1/52
f 20/1/17 19/1/16 37/1/53
f 34/1/12 35/1/19 53/1/54
f 27/1/14 28/1/21 46/1/55
f 19/1/16 21/1/2 39/1/4
f 35/1/19 36/1/24 54/1/41
f 28/1/21 29/1/26 47/1/43
f 37/1/53 39/1/4 56/1/56
f 39/1/4 40/1/3 57/1/56
f 40/1/3 41/1/44 58/1/56
f 41/1/44 42/1/46 59/1/56
f 42/1/46 43/1/48 60/1/56
f 43/1/48 44/1/50 61/1/56
f 44/1/50 45/1/52 62/1/56
f 45/1/52 46/1/55 63/1/56
f 46/1/55 47/1/43 64/1/56
f 47/1/43 48/1/42 65/1/56
f 48/1/42 49/1/45 66/1/56
f 49/1/45 50/1/47 67/1/56
f 50/1/47 51/1/49 68/1/56
f 51/1/49 52/1/51 69/1/56
f 52/1/51 53/1/54 70/1/56
f 53/1/54 54/1/41 71/1/56
f 54/1/41 38/1/40 72/1/56
f 38/1/40 37/1/53 55/1/56
f 100/2/30 101/2/34 120/2/34
f 67/1/36 68/1/39 87/1/39
f 60/1/18 61/1/23 80/1/23
f 68/1/39 69/1/8 88/1/8
f 61/1/23 62/1/29 81/1/29
f 55/1/30 56/1/34 73/1/34
f 69/1/8 70/1/13 89/1/13
f 62/1/29 63/1/15 82/1/15
f 72/1/25 55/1/30 74/1/30
f 70/1/13 71/1/20 90/1/20
f 63/1/15 64/1/22 83/1/22
f 56/1/34 57/1/38 76/1/38
f 71/1/20 72/1/25 75/1/25
f 64/1/22 65/1/27 84/1/27
f 57/1/38 58/1/5 77/1/5
f 65/1/27 66/1/32 85/1/32
f 58/1/5 59/1/11 78/1/11
f 66/1/32 67/1/36 86/1/36
f 74/1/56 73/1/56 92/1/56
f 73/1/56 76/1/56 93/1/56
f 76/1/56 77/1/56 94/1/56
f 77/1/56 78/1/56 95/1/56
f 78/1/56 79/1/56 96/1/56
f 79/1/56 80/1/56 97/1/56
f 80/1/56 81/1/56 98/1/56
f 81/1/56 82/1/56 99/1/56
f 82/1/56 83/1/56 100/1/56
f 83/1/56 84/1/56 101/1/56
f 84/1/56 85/1/56 102/1/56
f 85/1/56 86/1/56 103/1/56
f 86/1/56 87/1/56 104/1/56
f 87/1/56 88/1/56 105/1/56
f 88/1/56 89/1/56 106/1/56
f 89/1/56 90/1/56 107/1/56
f 90/1/56 75/1/56 108/1/56
f 75/1/56 74/1/56 91/1/56
f 111/2/56 110/2/56 113/2/56
f 110/2/56 109/2/56 113/2/56
f 109/2/56 112/2/56 113/2/56
f 113/2/56 114/2/56 117/2/56
f 114/2/56 115/2/56 117/2/56
f 115/2/56 116/2/56 117/2/56
f 117/2/56 118/2/56 119/2/56
f 119/2/56 120/2/56 121/2/56
f 121/2/56 122/2/56 123/2/56
f 123/2/56 124/2/56 125/2/56
f 125/2/56 126/2/56 113/2/56
f 126/2/56 111/2/56 113/2/56
f 117/2/56 119/2/56 113/2/56
f 119/2/56 121/2/56 113/2/56
f 121/2/56 123/2/56 113/2/56
f 93/2/32 94/2/36 113/2/36
f 101/2/34 102/2/38 121/2/38
f 94/2/36 95/2/39 114/2/39
f 102/2/38 103/2/5 122/2/5
f 95/2/39 96/2/8 115/2/8
f 103/2/5 104/2/11 123/2/11
f 96/2/8 97/2/13 116/2/13
f 104/2/11 105/2/18 124/2/18
f 97/2/13 98/2/20 117/2/20
f 91/2/22 92/2/27 109/2/27
f 105/2/18 106/2/23 125/2/23
f 98/2/20 99/2/25 118/2/25
f 108/2/15 91/2/22 110/2/22
f 106/2/23 107/2/29 126/2/29
f 99/2/25 100/2/30 119/2/30
f 92/2/27 93/2/32 112/2/32
f 107/2/29 108/2/15 111/2/15
f 127/1/56 128/1/56 129/1/56
f 129/1/56 130/1/56 131/1/56
f 131/1/56 132/1/56 133/1/56
f 133/1/56 134/1/56 135/1/56
f 135/1/56 136/1/56 137/1/56
f 137/1/56 138/1/56 139/1/56
f 139/1/56 140/1/56 141/1/56
f 141/1/56 142/1/56 139/1/56
f 142/1/56 143/1/56 139/1/56
f 143/1/56 144/1/56 127/1/56
f 127/1/56 129/1/56 143/1/56
f 129/1/56 131/1/56 143/1/56
f 131/1/56 133/1/56 139/1/56
f 133/1/56 135/1/56 139/1/56
f 135/1/56 137/1/56 139/1/56
f 147/1/57 165/1/90 166/1/58
f 140/1/5 158/1/74 159/1/60
f 133/1/8 151/1/75 152/1/61
f 141/1/11 159/1/60 160/1/62
f 134/1/13 152/1/61 153/1/63
f 127/1/15 146/1/69 145/1/64
f 142/1/18 160/1/62 161/1/65
f 135/1/20 153/1/63 154/1/66
f 128/1/22 145/1/64 147/1/57
f 143/1/23 161/1/65 162/1/67
f 136/1/25 154/1/66 155/1/68
f 129/1/27 147/1/57 148/1/59
f 144/1/29 162/1/67 146/1/69
f 137/1/30 155/1/68 156/1/70
f 130/1/32 148/1/59 149/1/71
f 138/1/34 156/1/70 157/1/72
f 131/1/36 149/1/71 150/1/73
f 139/1/38 157/1/72 158/1/74
f 132/1/39 150/1/73 151/1/75
f 185/1/11 204/1/11 205/1/18
f 162/1/67 180/1/91 164/1/76
f 155/1/68 173/1/92 174/1/77
f 148/1/59 166/1/58 167/1/78
f 156/1/70 174/1/77 175/1/79
f 149/1/71 167/1/78 168/1/80
f 157/1/72 175/1/79 176/1/81
f 150/1/73 168/1/80 169/1/82
f 158/1/74 176/1/81 177/1/83
f 151/1/75 169/1/82 170/1/84
f 159/1/60 177/1/83 178/1/85
f 152/1/61 170/1/84 171/1/86
f 146/1/69 164/1/76 163/1/87
f 160/1/62 178/1/85 179/1/88
f 153/1/63 171/1/86 172/1/89
f 145/1/64 163/1/87 165/1/90
f 161/1/65 179/1/88 180/1/91
f 154/1/66 172/1/89 173/1/92
f 163/1/87 181/1/1 182/1/1
f 165/1/90 182/1/1 183/1/1
f 166/1/58 183/1/1 184/1/1
f 167/1/78 184/1/1 185/1/1
f 168/1/80 185/1/1 186/1/1
f 169/1/82 186/1/1 187/1/1
f 170/1/84 187/1/1 188/1/1
f 171/1/86 188/1/1 189/1/1
f 172/1/89 189/1/1 190/1/1
f 173/1/92 190/1/1 191/1/1
f 174/1/77 191/1/1 192/1/1
f 175/1/79 192/1/1 193/1/1
f 176/1/81 193/1/1 194/1/1
f 177/1/83 194/1/1 195/1/1
f 178/1/85 195/1/1 196/1/1
f 179/1/88 196/1/1 197/1/1
f 180/1/91 197/1/1 198/1/1
f 164/1/76 198/1/1 181/1/1
f 226/2/30 245/2/30 246/2/34
f 193/1/36 212/1/36 213/1/39
f 186/1/18 205/1/18 206/1/23
f 194/1/39 213/1/39 214/1/8
f 187/1/23 206/1/23 207/1/29
f 181/1/30 200/1/30 199/1/34
f 195/1/8 214/1/8 215/1/13
f 188/1/29 207/1/29 208/1/15
f 198/1/25 201/1/25 200/1/30
f 196/1/13 215/1/13 216/1/20
f 189/1/15 208/1/15 209/1/22
f 182/1/34 199/1/34 202/1/38
f 197/1/20 216/1/20 201/1/25
f 190/1/22 209/1/22 210/1/27
f 183/1/38 202/1/38 203/1/5
f 191/1/27 210/1/27 211/1/32
f 184/1/5 203/1/5 204/1/11
f 192/1/32 211/1/32 212/1/36
f 200/1/1 217/1/1 218/1/1
f 199/1/1 218/1/1 219/1/1
f 202/1/1 219/1/1 220/1/1
f 203/1/1 220/1/1 221/1/1
f 204/1/1 221/1/1 222/1/1
f 205/1/1 222/1/1 223/1/1
f 206/1/1 223/1/1 224/1/1
f 207/1/1 224/1/1 225/1/1
f 208/1/1 225/1/1 226/1/1
f 209/1/1 226/1/1 227/1/1
f 210/1/1 227/1/1 228/1/1
f 211/1/1 228/1/1 229/1/1
f 212/1/1 229/1/1 230/1/1
f 213/1/1 230/1/1 231/1/1
f 214/1/1 231/1/1 232/1/1
f 215/1/1 232/1/1 233/1/1
f 216/1/1 233/1/1 234/1/1
f 201/1/1 234/1/1 217/1/1
f 235/2/1 236/2/1 237/2/1
f 237/2/1 252/2/1 251/2/1
f 251/2/1 250/2/1 249/2/1
f 249/2/1 248/2/1 247/2/1
f 247/2/1 246/2/1 245/2/1
f 245/2/1 244/2/1 247/2/1
f 244/2/1 243/2/1 247/2/1
f 243/2/1 242/2/1 241/2/1
f 241/2/1 240/2/1 239/2/1
f 239/2/1 238/2/1 235/2/1
f 235/2/1 237/2/1 239/2/1
f 237/2/1 251/2/1 239/2/1
f 251/2/1 249/2/1 243/2/1
f 249/2/1 247/2/1 243/2/1
f 243/2/1 241/2/1 239/2/1
f 219/2/32 238/2/32 239/2/36
f 227/2/34 246/2/34 247/2/38
f 220/2/36 239/2/36 240/2/39
f 228/2/38 247/2/38 248/2/5
f 221/2/39 240/2/39 241/2/8
f 229/2/5 248/2/5 249/2/11
f 222/2/8 241/2/8 242/2/13
f 230/2/11 249/2/11 250/2/18
f 223/2/13 242/2/13 243/2/20
f 217/2/22 236/2/22 235/2/27
f 231/2/18 250/2/18 251/2/23
f 224/2/20 243/2/20 244/2/25
f 234/2/15 237/2/15 236/2/22
f 232/2/23 251/2/23 252/2/29
f 225/2/25 244/2/25 245/2/30
f 218/2/27 235/2/27 238/2/32
f 233/2/29 252/2/29 237/2/15
