# Blender 3.6.2
# www.blender.org
mtllib llanta_trasera_derecha.mtl
o WheelR-F
v -0.225616 0.029577 -0.733045
v -0.225616 0.274649 -0.689833
v -0.225616 0.490162 -0.565407
v -0.225616 0.650122 -0.374774
v -0.225616 0.735235 -0.140929
v -0.225616 0.735235 0.107925
v -0.225616 0.650122 0.341770
v -0.225616 0.490162 0.532403
v -0.225616 0.274649 0.656829
v -0.225616 0.029577 0.700042
v -0.225616 -0.215496 0.656829
v -0.225616 -0.431009 0.532403
v -0.225616 -0.590969 0.341771
v -0.225616 -0.676082 0.107926
v -0.225616 -0.676082 -0.140929
v -0.225616 -0.590969 -0.374774
v -0.225616 -0.431009 -0.565406
v -0.225616 -0.215496 -0.689833
v 0.227214 0.274649 -0.689833
v 0.227214 0.029577 -0.733045
v 0.227214 0.490162 -0.565407
v 0.227214 0.650122 -0.374774
v 0.227214 0.735235 -0.140929
v 0.227214 0.735235 0.107925
v 0.227214 0.650122 0.341770
v 0.227214 0.490162 0.532403
v 0.227214 0.274649 0.656829
v 0.227214 0.029577 0.700042
v 0.227214 -0.215496 0.656829
v 0.227214 -0.431009 0.532403
v 0.227214 -0.590969 0.341771
v 0.227214 -0.676082 0.107926
v 0.227214 -0.676082 -0.140929
v 0.227214 -0.590969 -0.374774
v 0.227214 -0.431009 -0.565406
v 0.227214 -0.215496 -0.689833
v 0.293134 0.243754 -0.604949
v 0.293134 0.029577 -0.642714
v 0.293134 0.432098 -0.496208
v 0.293134 0.571892 -0.329608
v 0.293134 0.646275 -0.125243
v 0.293134 0.646275 0.092239
v 0.293134 0.571892 0.296604
v 0.293134 0.432098 0.463204
v 0.293134 0.243754 0.571946
v 0.293134 0.029577 0.609710
v 0.293134 -0.184600 0.571946
v 0.293134 -0.372945 0.463205
v 0.293134 -0.512739 0.296605
v 0.293134 -0.587122 0.092240
v 0.293134 -0.587122 -0.125243
v 0.293134 -0.512739 -0.329608
v 0.293134 -0.372945 -0.496208
v 0.293134 -0.184600 -0.604949
v 0.293134 0.182356 -0.436260
v 0.293134 0.316708 -0.358692
v 0.293134 0.416428 -0.239851
v 0.293134 0.469487 -0.094070
v 0.293134 0.469487 0.061066
v 0.293134 0.416428 0.206848
v 0.293134 0.316708 0.325688
v 0.293134 0.182356 0.403257
v 0.293134 0.029577 0.430195
v 0.293134 -0.123203 0.403257
v 0.293134 -0.257555 0.325688
v 0.293134 -0.357274 0.206848
v 0.293134 -0.410334 0.061067
v 0.293134 -0.410334 -0.094070
v 0.293134 -0.357274 -0.239851
v 0.293134 -0.257555 -0.358692
v 0.293134 -0.123203 -0.436260
v 0.293134 0.029577 -0.463199
v 0.232605 0.316708 -0.358692
v 0.232604 0.182356 -0.436260
v 0.232604 0.029577 -0.463199
v 0.232604 0.416428 -0.239851
v 0.232604 0.469487 -0.094070
v 0.232604 0.469487 0.061066
v 0.232604 0.416428 0.206848
v 0.232605 0.316708 0.325688
v 0.232604 0.182356 0.403257
v 0.232604 0.029577 0.430195
v 0.232604 -0.123203 0.403257
v 0.232604 -0.257555 0.325688
v 0.232604 -0.357274 0.206848
v 0.232604 -0.410334 0.061067
v 0.232604 -0.410334 -0.094070
v 0.232604 -0.357274 -0.239851
v 0.232604 -0.257555 -0.358692
v 0.232604 -0.123203 -0.436260
v 0.232604 0.118440 -0.260653
v 0.232604 0.196586 -0.215536
v 0.232605 0.254587 -0.146412
v 0.232605 0.285449 -0.061618
v 0.232605 0.285449 0.028615
v 0.232605 0.254587 0.113408
v 0.232604 0.196586 0.182532
v 0.232604 0.118440 0.227650
v 0.232604 0.029577 0.243318
v 0.232604 -0.059287 0.227650
v 0.232604 -0.137432 0.182532
v 0.232604 -0.195434 0.113408
v 0.232604 -0.226296 0.028615
v 0.232604 -0.226296 -0.061618
v 0.232604 -0.195434 -0.146412
v 0.232604 -0.137432 -0.215536
v 0.232604 -0.078599 -0.260653
v 0.232604 0.029577 -0.276322
v 0.265710 0.196586 -0.215536
v 0.265710 0.118440 -0.260653
v 0.265710 0.029577 -0.276322
v 0.265710 0.254587 -0.146412
v 0.265710 0.285449 -0.061618
v 0.265710 0.285449 0.028615
v 0.265710 0.254587 0.113408
v 0.265710 0.196586 0.182532
v 0.265710 0.118440 0.227650
v 0.265710 0.029577 0.243318
v 0.265710 -0.059287 0.227650
v 0.265710 -0.137432 0.182532
v 0.265710 -0.195434 0.113408
v 0.265710 -0.226296 0.028615
v 0.265710 -0.226296 -0.061618
v 0.265710 -0.195434 -0.146412
v 0.265710 -0.137432 -0.215536
v 0.265710 -0.059287 -0.260653
vn -1.0000 -0.0000 -0.0000
vn 0.4992 0.5570 -0.6638
vn 0.4992 0.7504 -0.4332
vn 0.9542 0.2591 -0.1496
vn 0.9542 0.1923 -0.2292
vn -0.0000 -0.9848 0.1736
vn -0.0000 -0.9848 -0.1736
vn 0.4992 -0.8533 -0.1505
vn 0.4992 -0.8533 0.1505
vn -0.0000 0.8660 0.5000
vn -0.0000 0.6428 0.7660
vn 0.4992 0.5570 0.6638
vn 0.4992 0.7504 0.4332
vn -0.0000 -0.8660 -0.5000
vn 0.4992 -0.7504 -0.4332
vn -0.0000 0.3420 0.9397
vn 0.4992 0.2964 0.8142
vn -0.0000 -0.0000 -1.0000
vn -0.0000 0.3420 -0.9397
vn 0.4992 0.2964 -0.8142
vn 0.4992 -0.0000 -0.8665
vn -0.0000 -0.6428 -0.7660
vn 0.4992 -0.5570 -0.6638
vn -0.0000 -0.0000 1.0000
vn 0.4992 -0.0000 0.8665
vn -0.0000 0.6428 -0.7660
vn -0.0000 -0.3420 -0.9397
vn 0.4992 -0.2964 -0.8142
vn -0.0000 -0.3420 0.9397
vn 0.4992 -0.2964 0.8142
vn -0.0000 0.8660 -0.5000
vn -0.0000 -0.6428 0.7660
vn 0.4992 -0.5570 0.6638
vn -0.0000 0.9848 -0.1736
vn 0.4992 0.8533 -0.1505
vn -0.0000 -0.8660 0.5000
vn 0.4992 -0.7504 0.4332
vn -0.0000 0.9848 0.1736
vn 0.4992 0.8533 0.1505
vn 0.9542 -0.0000 -0.2992
vn 0.9542 -0.1023 -0.2811
vn 0.9542 -0.1923 0.2292
vn 0.9542 -0.1023 0.2811
vn 0.9542 0.2946 -0.0519
vn 0.9542 -0.2591 0.1496
vn 0.9542 0.2946 0.0519
vn 0.9542 -0.2946 0.0519
vn 0.9542 0.2591 0.1496
vn 0.9542 -0.2946 -0.0519
vn 0.9542 0.1923 0.2292
vn 0.9542 -0.2591 -0.1496
vn 0.9542 0.1023 0.2811
vn 0.9542 0.1023 -0.2811
vn 0.9542 -0.1923 -0.2292
vn 0.9542 -0.0000 0.2992
vn 1.0000 -0.0000 -0.0000
vn 0.0806 -0.6631 -0.7441
vn 0.0232 0.0085 -0.9997
vn 0.1158 -0.3971 -0.9104
vn 0.0935 -0.3207 -0.9426
vt 0.923917 0.911515
vt 0.440256 0.595275
s 1
usemtl mix
f 2/1/1 1/1/1 18/1/1 17/1/1 16/1/1 15/1/1 14/1/1 13/1/1 12/1/1 11/1/1 10/1/1 9/1/1 8/1/1 7/1/1 6/1/1 5/1/1 4/1/1 3/1/1
f 21/1/2 22/1/3 40/1/4 39/1/5
f 14/1/6 15/1/7 33/1/8 32/1/9
f 7/1/10 8/1/11 26/1/12 25/1/13
f 15/1/7 16/1/14 34/1/15 33/1/8
f 8/1/11 9/1/16 27/1/17 26/1/12
f 1/1/18 2/1/19 19/1/20 20/1/21
f 16/1/14 17/1/22 35/1/23 34/1/15
f 9/1/16 10/1/24 28/1/25 27/1/17
f 2/1/19 3/1/26 21/1/2 19/1/20
f 17/1/22 18/1/27 36/1/28 35/1/23
f 10/1/24 11/1/29 29/1/30 28/1/25
f 3/1/26 4/1/31 22/1/3 21/1/2
f 18/1/27 1/1/18 20/1/21 36/1/28
f 11/1/29 12/1/32 30/1/33 29/1/30
f 4/1/31 5/1/34 23/1/35 22/1/3
f 12/1/32 13/1/36 31/1/37 30/1/33
f 5/1/34 6/1/38 24/1/39 23/1/35
f 13/1/36 14/1/6 32/1/9 31/1/37
f 6/1/38 7/1/10 25/1/13 24/1/39
f 59/1/7 60/1/14 79/1/14 78/1/7
f 36/1/28 20/1/21 38/1/40 54/1/41
f 29/1/30 30/1/33 48/1/42 47/1/43
f 22/1/3 23/1/35 41/1/44 40/1/4
f 30/1/33 31/1/37 49/1/45 48/1/42
f 23/1/35 24/1/39 42/1/46 41/1/44
f 31/1/37 32/1/9 50/1/47 49/1/45
f 24/1/39 25/1/13 43/1/48 42/1/46
f 32/1/9 33/1/8 51/1/49 50/1/47
f 25/1/13 26/1/12 44/1/50 43/1/48
f 33/1/8 34/1/15 52/1/51 51/1/49
f 26/1/12 27/1/17 45/1/52 44/1/50
f 20/1/21 19/1/20 37/1/53 38/1/40
f 34/1/15 35/1/23 53/1/54 52/1/51
f 27/1/17 28/1/25 46/1/55 45/1/52
f 19/1/20 21/1/2 39/1/5 37/1/53
f 35/1/23 36/1/28 54/1/41 53/1/54
f 28/1/25 29/1/30 47/1/43 46/1/55
f 37/1/53 39/1/5 56/1/56 55/1/56
f 39/1/5 40/1/4 57/1/56 56/1/56
f 40/1/4 41/1/44 58/1/56 57/1/56
f 41/1/44 42/1/46 59/1/56 58/1/56
f 42/1/46 43/1/48 60/1/56 59/1/56
f 43/1/48 44/1/50 61/1/56 60/1/56
f 44/1/50 45/1/52 62/1/56 61/1/56
f 45/1/52 46/1/55 63/1/56 62/1/56
f 46/1/55 47/1/43 64/1/56 63/1/56
f 47/1/43 48/1/42 65/1/56 64/1/56
f 48/1/42 49/1/45 66/1/56 65/1/56
f 49/1/45 50/1/47 67/1/56 66/1/56
f 50/1/47 51/1/49 68/1/56 67/1/56
f 51/1/49 52/1/51 69/1/56 68/1/56
f 52/1/51 53/1/54 70/1/56 69/1/56
f 53/1/54 54/1/41 71/1/56 70/1/56
f 54/1/41 38/1/40 72/1/56 71/1/56
f 38/1/40 37/1/53 55/1/56 72/1/56
f 100/2/29 101/2/32 120/2/32 119/2/29
f 67/1/34 68/1/38 87/1/38 86/1/34
f 60/1/14 61/1/22 80/1/22 79/1/14
f 68/1/38 69/1/10 88/1/10 87/1/38
f 61/1/22 62/1/27 81/1/27 80/1/22
f 55/1/29 56/1/32 73/1/32 74/1/29
f 69/1/10 70/1/11 89/1/11 88/1/10
f 62/1/27 63/1/18 82/1/18 81/1/27
f 72/1/24 55/1/29 74/1/29 75/1/24
f 70/1/11 71/1/16 90/1/16 89/1/11
f 63/1/18 64/1/19 83/1/19 82/1/18
f 56/1/32 57/1/36 76/1/36 73/1/32
f 71/1/16 72/1/24 75/1/24 90/1/16
f 64/1/19 65/1/26 84/1/26 83/1/19
f 57/1/36 58/1/6 77/1/6 76/1/36
f 65/1/26 66/1/31 85/1/31 84/1/26
f 58/1/6 59/1/7 78/1/7 77/1/6
f 66/1/31 67/1/34 86/1/34 85/1/31
f 74/1/56 73/1/56 92/1/56 91/1/56
f 73/1/56 76/1/56 93/1/56 92/1/56
f 76/1/56 77/1/56 94/1/56 93/1/56
f 77/1/56 78/1/56 95/1/56 94/1/56
f 78/1/56 79/1/56 96/1/56 95/1/56
f 79/1/56 80/1/56 97/1/56 96/1/56
f 80/1/56 81/1/56 98/1/56 97/1/56
f 81/1/56 82/1/56 99/1/56 98/1/56
f 82/1/56 83/1/56 100/1/56 99/1/56
f 83/1/56 84/1/56 101/1/56 100/1/56
f 84/1/56 85/1/56 102/1/56 101/1/56
f 85/1/56 86/1/56 103/1/56 102/1/56
f 86/1/56 87/1/56 104/1/56 103/1/56
f 87/1/56 88/1/56 105/1/56 104/1/56
f 88/1/56 89/1/56 106/1/56 105/1/56
f 89/1/56 90/1/56 107/1/56 106/1/56
f 90/1/56 75/1/56 108/1/56 107/1/56
f 75/1/56 74/1/56 91/1/56 108/1/56
f 110/2/56 109/2/56 112/2/56 113/2/56 114/2/56 115/2/56 116/2/56 117/2/56 118/2/56 119/2/56 120/2/56 121/2/56 122/2/56 123/2/56 124/2/56 125/2/56 126/2/56 111/2/56
f 93/2/31 94/2/34 113/2/34 112/2/31
f 101/2/32 102/2/36 121/2/36 120/2/32
f 94/2/34 95/2/38 114/2/38 113/2/34
f 102/2/36 103/2/6 122/2/6 121/2/36
f 95/2/38 96/2/10 115/2/10 114/2/38
f 103/2/6 104/2/7 123/2/7 122/2/6
f 96/2/10 97/2/11 116/2/11 115/2/10
f 104/2/7 105/2/14 124/2/14 123/2/7
f 97/2/11 98/2/16 117/2/16 116/2/11
f 91/2/19 92/2/26 109/2/26 110/2/19
f 105/2/14 106/2/57 125/2/57 124/2/14
f 98/2/16 99/2/24 118/2/24 117/2/16
f 108/2/58 91/2/19 110/2/19 111/2/58
f 106/2/57 107/2/59 126/2/60 125/2/57
f 99/2/24 100/2/29 119/2/29 118/2/24
f 92/2/26 93/2/31 112/2/31 109/2/26
f 107/2/59 108/2/58 111/2/58 126/2/60
